<?xml version="1.0" encoding="UTF-8" standalone="no" ?>
<!DOCTYPE svg PUBLIC "-//W3C//DTD SVG 1.1//EN" "http://www.w3.org/Graphics/SVG/1.1/DTD/svg11.dtd">
<svg xmlns="http://www.w3.org/2000/svg" xmlns:xlink="http://www.w3.org/1999/xlink" version="1.1" width="1280" height="1024" viewBox="0 0 1280 1024" xml:space="preserve">
<desc>Created with Fabric.js 4.4.0</desc>
<defs>
</defs>
<g transform="matrix(1 0 0 1 640 512)" id="background-logo"  >
<rect style="stroke: none; stroke-width: 0; stroke-dasharray: none; stroke-linecap: butt; stroke-dashoffset: 0; stroke-linejoin: miter; stroke-miterlimit: 4; fill: rgb(255,255,255); fill-opacity: 0; fill-rule: nonzero; opacity: 1;"  paint-order="stroke"  x="-640" y="-512" rx="0" ry="0" width="1280" height="1024" />
</g>
<g transform="matrix(1.9211538461538462 0 0 1.9211538461538462 788.8697104115134 445.6883198675442)" id="text-logo-path-group"  >
<g style=""  paint-order="stroke"   >
		<g transform="matrix(1 0 0 1 0 0)" id="text-logo-path-0"  >
<linearGradient id="SVGID_291098" gradientUnits="userSpaceOnUse" gradientTransform="matrix(1 0 0 1 5.5800000000000125 -62.19)"  x1="0" y1="0" x2="0" y2="102">
<stop offset="0%" style="stop-color:rgb(23,234,217);stop-opacity: 1"/>
<stop offset="100%" style="stop-color:rgb(96,120,234);stop-opacity: 1"/>
</linearGradient>
<path style="stroke: none; stroke-width: 1; stroke-dasharray: none; stroke-linecap: butt; stroke-dashoffset: 0; stroke-linejoin: miter; stroke-miterlimit: 4; fill: url(#SVGID_291098); fill-rule: nonzero; opacity: 1;"  paint-order="stroke"  transform=" translate(-204.84000000000003, 30.465)" d="M 27.81 -19.8 L 38.88 0 L 55.98 0 L 43.11 -23.22 C 49.05 -27.09 52.47 -33.66 52.47 -40.68 C 52.47 -52.29 43.2 -61.56 31.68 -61.56 L 5.58 -61.56 L 5.58 0 L 20.61 0 L 20.61 -19.8 Z M 20.61 -34.02 L 20.61 -47.34 L 31.68 -47.34 C 35.46 -47.34 38.34 -44.46 38.34 -40.68 C 38.34 -37.08 35.28 -34.02 31.68 -34.02 Z M 92.79 -61.56 L 80.28 -38.43 L 67.68 -61.56 L 50.76 -61.56 L 72.72 -20.88 L 72.72 0 L 87.75 0 L 87.75 -20.7 L 109.71 -61.56 Z M 136.53 1.26 C 154.17 1.26 168.21 -13.05 168.21 -30.51 C 168.21 -48.24 154.08 -62.19 136.53 -62.19 C 118.89 -62.19 104.76 -47.97 104.76 -30.51 C 104.76 -13.14 118.98 1.26 136.53 1.26 Z M 119.7 -30.51 C 119.7 -39.69 127.44 -47.25 136.53 -47.25 C 145.8 -47.25 153.18 -39.69 153.18 -30.51 C 153.18 -21.33 145.8 -13.77 136.53 -13.77 C 127.35 -13.77 119.7 -21.42 119.7 -30.51 Z M 191.61 -14.13 L 191.61 -61.56 L 176.58 -61.56 L 176.58 0 L 215.46 0 L 215.46 -14.13 Z M 264.51 0 L 280.53 0 L 257.94 -61.56 L 241.92 -61.56 L 219.42 0 L 235.44 0 L 239.4 -10.71 L 260.55 -10.71 Z M 244.53 -24.93 L 250.02 -39.78 L 255.33 -24.93 Z M 320.13 -61.56 L 320.13 -30.24 L 300.15 -61.56 L 285.12 -61.56 L 285.12 0 L 300.15 0 L 300.15 -35.19 L 322.65 0 L 335.16 0 L 335.16 -61.56 Z M 372.51 -61.56 L 346.23 -61.56 L 346.23 0 L 372.51 0 C 390.06 0 404.1 -12.96 404.1 -30.51 C 404.1 -47.97 390.06 -61.56 372.51 -61.56 Z M 361.26 -14.13 L 361.26 -47.34 L 372.51 -47.34 C 381.78 -47.34 389.16 -39.87 389.16 -30.69 C 389.16 -21.42 381.6 -14.13 372.51 -14.13 Z" stroke-linecap="round" />
</g>
</g>
</g>
<g transform="matrix(1.9211538461538462 0 0 1.9211538461538462 791.6491384852428 599.9912549350511)" id="tagline-e16ea9cf-4381-4577-9f65-5e179ac2342d-logo-path-group"  >
<g style=""  paint-order="stroke"   >
		<g transform="matrix(1 0 0 1 0 0)" id="tagline-e16ea9cf-4381-4577-9f65-5e179ac2342d-logo-path-0"  >
<linearGradient id="SVGID_291099" gradientUnits="userSpaceOnUse" gradientTransform="matrix(1 0 0 1 0.25 -14.64)"  x1="0" y1="0" x2="0" y2="24">
<stop offset="0%" style="stop-color:rgb(23,234,217);stop-opacity: 1"/>
<stop offset="100%" style="stop-color:rgb(96,120,234);stop-opacity: 1"/>
</linearGradient>
<path style="stroke: none; stroke-width: 1; stroke-dasharray: none; stroke-linecap: butt; stroke-dashoffset: 0; stroke-linejoin: miter; stroke-miterlimit: 4; fill: url(#SVGID_291099); fill-rule: nonzero; opacity: 1;"  paint-order="stroke"  transform=" translate(-200.37, 7.175000000000001)" d="M 10.98 -11.05 L 10.98 -14.36 L 0.25 -14.36 L 0.25 -11.05 L 3.89 -11.05 L 3.89 0 L 7.37 0 L 7.37 -11.05 Z M 21.53 -14.36 L 21.53 -9.01 L 15.77 -9.01 L 15.77 -14.36 L 12.26 -14.36 L 12.26 0 L 15.77 0 L 15.77 -5.69 L 21.53 -5.69 L 21.53 0 L 25.01 0 L 25.01 -14.36 Z M 31.12 -3.3 L 31.12 -5.69 L 36.12 -5.69 L 36.12 -8.99 L 31.12 -8.99 L 31.12 -11.05 L 36.62 -11.05 L 36.62 -14.36 L 27.62 -14.36 L 27.62 0 L 36.73 0 L 36.73 -3.3 Z M 47.44 -3.3 L 47.44 -14.36 L 43.93 -14.36 L 43.93 0 L 53 0 L 53 -3.3 Z M 57.96 -3.3 L 57.96 -5.69 L 62.96 -5.69 L 62.96 -8.99 L 57.96 -8.99 L 57.96 -11.05 L 63.46 -11.05 L 63.46 -14.36 L 54.45 -14.36 L 54.45 0 L 63.57 0 L 63.57 -3.3 Z M 74.99 0 L 78.73 0 L 73.46 -14.36 L 69.72 -14.36 L 64.47 0 L 68.21 0 L 69.13 -2.5 L 74.07 -2.5 Z M 70.33 -5.82 L 71.61 -9.28 L 72.85 -5.82 Z M 85.78 -14.36 L 79.65 -14.36 L 79.65 0 L 85.78 0 C 89.88 0 93.16 -3.02 93.16 -7.12 C 93.16 -11.19 89.88 -14.36 85.78 -14.36 Z M 83.16 -3.3 L 83.16 -11.05 L 85.78 -11.05 C 87.95 -11.05 89.67 -9.3 89.67 -7.16 C 89.67 -5 87.91 -3.3 85.78 -3.3 Z M 95.13 -14.36 L 95.13 0 L 98.64 0 L 98.64 -14.36 Z M 109.41 -14.36 L 109.41 -7.06 L 104.75 -14.36 L 101.24 -14.36 L 101.24 0 L 104.75 0 L 104.75 -8.21 L 110 0 L 112.92 0 L 112.92 -14.36 Z M 129.15 -6.59 L 129.15 -8.02 L 121.21 -8.02 L 121.21 -4.7 L 124.91 -4.7 C 124.17 -3.76 123.06 -3.21 121.86 -3.21 C 119.72 -3.21 117.94 -5 117.94 -7.12 C 117.94 -9.26 119.74 -11.03 121.86 -11.03 C 123.16 -11.03 124.19 -10.46 124.99 -9.43 L 127.72 -11.59 C 126.29 -13.44 124.21 -14.51 121.86 -14.51 C 117.75 -14.51 114.45 -11.19 114.45 -7.12 C 114.45 -3.02 117.81 0.29 121.86 0.29 C 125.68 0.29 129.15 -2.69 129.15 -6.59 Z M 141.54 -4.62 L 144.12 0 L 148.11 0 L 145.11 -5.42 C 146.5 -6.32 147.29 -7.85 147.29 -9.49 C 147.29 -12.2 145.13 -14.36 142.44 -14.36 L 136.35 -14.36 L 136.35 0 L 139.86 0 L 139.86 -4.62 Z M 139.86 -7.94 L 139.86 -11.05 L 142.44 -11.05 C 143.32 -11.05 144 -10.37 144 -9.49 C 144 -8.65 143.28 -7.94 142.44 -7.94 Z M 152.63 -3.3 L 152.63 -5.69 L 157.63 -5.69 L 157.63 -8.99 L 152.63 -8.99 L 152.63 -11.05 L 158.13 -11.05 L 158.13 -14.36 L 149.12 -14.36 L 149.12 0 L 158.23 0 L 158.23 -3.3 Z M 169.66 0 L 173.4 0 L 168.13 -14.36 L 164.39 -14.36 L 159.14 0 L 162.88 0 L 163.8 -2.5 L 168.73 -2.5 Z M 165 -5.82 L 166.28 -9.28 L 167.52 -5.82 Z M 177.85 -3.3 L 177.85 -14.36 L 174.34 -14.36 L 174.34 0 L 183.41 0 L 183.41 -3.3 Z M 193.7 -3.3 L 193.7 -5.69 L 198.7 -5.69 L 198.7 -8.99 L 193.7 -8.99 L 193.7 -11.05 L 199.21 -11.05 L 199.21 -14.36 L 190.2 -14.36 L 190.2 0 L 199.31 0 L 199.31 -3.3 Z M 205.8 0.29 C 208.47 0.29 211.05 -1.2 211.05 -4.07 C 211.05 -6.91 208.82 -8.09 206.41 -8.82 C 205.76 -9.03 205.28 -9.22 204.96 -9.37 C 204.52 -9.58 204.2 -9.81 204.2 -10.33 C 204.2 -10.94 204.98 -11.17 205.46 -11.17 C 206.6 -11.17 207.16 -10.67 207.65 -9.68 L 210.63 -11.42 C 209.6 -13.55 207.82 -14.64 205.46 -14.64 C 202.9 -14.64 200.72 -12.98 200.72 -10.33 C 200.72 -7.62 202.65 -6.55 204.98 -5.86 C 205.72 -5.65 206.24 -5.46 206.6 -5.31 C 207.08 -5.12 207.56 -4.87 207.56 -4.28 C 207.56 -3.51 206.51 -3.13 205.88 -3.13 C 204.52 -3.13 203.57 -3.65 203.05 -4.96 L 200.11 -3.23 C 201.05 -0.82 203.28 0.29 205.8 0.29 Z M 222.01 -11.05 L 222.01 -14.36 L 211.28 -14.36 L 211.28 -11.05 L 214.91 -11.05 L 214.91 0 L 218.4 0 L 218.4 -11.05 Z M 230.98 0 L 234.72 0 L 229.45 -14.36 L 225.71 -14.36 L 220.46 0 L 224.2 0 L 225.12 -2.5 L 230.06 -2.5 Z M 226.32 -5.82 L 227.6 -9.28 L 228.84 -5.82 Z M 243.35 -11.05 L 243.35 -14.36 L 232.62 -14.36 L 232.62 -11.05 L 236.25 -11.05 L 236.25 0 L 239.74 0 L 239.74 -11.05 Z M 247.78 -3.3 L 247.78 -5.69 L 252.78 -5.69 L 252.78 -8.99 L 247.78 -8.99 L 247.78 -11.05 L 253.28 -11.05 L 253.28 -14.36 L 244.27 -14.36 L 244.27 0 L 253.39 0 L 253.39 -3.3 Z M 271.64 -14.34 L 271.61 -14.36 L 267.86 -8.09 L 264.1 -14.36 L 260.59 -14.36 L 260.59 0 L 264.1 0 L 264.1 -7.96 L 267.44 -2.35 L 268.3 -2.35 L 271.64 -7.96 L 271.64 0 L 275.12 0 L 275.12 -14.36 L 271.64 -14.36 Z M 286.73 0 L 290.47 0 L 285.2 -14.36 L 281.46 -14.36 L 276.21 0 L 279.95 0 L 280.88 -2.5 L 285.81 -2.5 Z M 282.07 -5.82 L 283.35 -9.28 L 284.59 -5.82 Z M 296.56 -4.62 L 299.15 0 L 303.14 0 L 300.13 -5.42 C 301.52 -6.32 302.32 -7.85 302.32 -9.49 C 302.32 -12.2 300.15 -14.36 297.47 -14.36 L 291.38 -14.36 L 291.38 0 L 294.88 0 L 294.88 -4.62 Z M 294.88 -7.94 L 294.88 -11.05 L 297.47 -11.05 C 298.35 -11.05 299.02 -10.37 299.02 -9.49 C 299.02 -8.65 298.31 -7.94 297.47 -7.94 Z M 312.8 0 L 317.14 0 L 311.2 -7.83 L 316.45 -14.36 L 312.04 -14.36 L 307.65 -8.97 L 307.65 -14.36 L 304.14 -14.36 L 304.14 0 L 307.65 0 L 307.65 -3.38 L 308.95 -5.02 Z M 321.34 -3.3 L 321.34 -5.69 L 326.34 -5.69 L 326.34 -8.99 L 321.34 -8.99 L 321.34 -11.05 L 326.84 -11.05 L 326.84 -14.36 L 317.84 -14.36 L 317.84 0 L 326.95 0 L 326.95 -3.3 Z M 338.98 -11.05 L 338.98 -14.36 L 328.25 -14.36 L 328.25 -11.05 L 331.88 -11.05 L 331.88 0 L 335.37 0 L 335.37 -11.05 Z M 346.04 -14.36 L 340.56 -14.36 L 340.56 0 L 344.04 0 L 344.04 -4.62 L 346.04 -4.62 C 348.75 -4.62 350.93 -6.8 350.93 -9.49 C 350.93 -12.18 348.75 -14.36 346.04 -14.36 Z M 344.04 -7.94 L 344.04 -11.05 L 346.04 -11.05 C 346.94 -11.05 347.59 -10.4 347.59 -9.49 C 347.59 -8.61 346.92 -7.94 346.04 -7.94 Z M 355.78 -3.3 L 355.78 -14.36 L 352.28 -14.36 L 352.28 0 L 361.35 0 L 361.35 -3.3 Z M 372.79 0 L 376.53 0 L 371.26 -14.36 L 367.52 -14.36 L 362.27 0 L 366.01 0 L 366.93 -2.5 L 371.87 -2.5 Z M 368.13 -5.82 L 369.41 -9.28 L 370.65 -5.82 Z M 376.19 -7.12 C 376.19 -3.02 379.55 0.29 383.61 0.29 C 386.32 0.29 388.88 -1.26 390.14 -3.65 L 387.05 -5.33 C 386.42 -4.05 385.04 -3.21 383.61 -3.21 C 381.47 -3.21 379.68 -5 379.68 -7.12 C 379.68 -9.26 381.49 -11.03 383.61 -11.03 C 385.04 -11.03 386.34 -10.27 387.03 -9.01 L 390.1 -10.65 C 388.82 -13.04 386.32 -14.51 383.61 -14.51 C 379.53 -14.51 376.19 -11.24 376.19 -7.12 Z M 394.88 -3.3 L 394.88 -5.69 L 399.88 -5.69 L 399.88 -8.99 L 394.88 -8.99 L 394.88 -11.05 L 400.39 -11.05 L 400.39 -14.36 L 391.38 -14.36 L 391.38 0 L 400.49 0 L 400.49 -3.3 Z" stroke-linecap="round" />
</g>
</g>
</g>
<g transform="matrix(1.1617748591629935 0 0 1.1617748591629935 257.16387346412847 512.2531311083762)" id="logo-logo"  >
<g style=""  paint-order="stroke"   >
		<g transform="matrix(0.1973154317210896 0 0 -0.1973154317210895 0 -48.724801308797964)"  >
<linearGradient id="SVGID_6_6_291093" gradientUnits="userSpaceOnUse" gradientTransform="matrix(1 0 0 1 0 493.7659999999999)"  x1="0" y1="0" x2="0" y2="910">
<stop offset="0%" style="stop-color:rgb(23,234,217);stop-opacity: 1"/>
<stop offset="100%" style="stop-color:rgb(96,120,234);stop-opacity: 1"/>
</linearGradient>
<path style="stroke: none; stroke-width: 1; stroke-dasharray: none; stroke-linecap: butt; stroke-dashoffset: 0; stroke-linejoin: miter; stroke-miterlimit: 4; fill: url(#SVGID_6_6_291093); fill-rule: nonzero; opacity: 1;"  paint-order="stroke"  transform=" translate(-515, -948.6779999999999)" d="M 952.422 937.184 L 846.1600000000001 1007.78 L 840.0000000000001 1012.31 L 840.0000000000001 1214.3799999999999 L 761.5550000000001 1265.77 L 619.363 1359.41 L 571.695 1390.75 L 552.1560000000001 1403.59 L 532.6600000000001 1390.75 L 485.0780000000001 1359.41 L 350.4220000000001 1272.21 L 270 1220.82 L 270 1137.98 L 233.563 1112.27 L 195.88299999999998 1086.59 L 189.652 1082.07 L 80.2891 1011.47 L 0 960.074 L 0 864.078 L 100 835.953 L 100 923.063 L 198.62099999999998 993.668 L 201.32399999999998 998.152 L 235.664 1023.88 L 270 1049.54 L 270 766.703 L 310 752.621 L 310 1158.07 L 338.438 1183.08 L 330 1182.1599999999999 L 330 1183.7699999999998 L 530 1302.3399999999997 L 530 673.648 L 570 659.586 L 570 1302.3400000000001 L 760 1177.3300000000002 L 760 1063.7300000000002 L 760 975.2770000000003 L 760 591.1560000000003 L 800 577.0980000000003 L 800 949.5740000000003 L 838.938 923.9020000000003 L 839.402 919.3520000000003 L 940 848.758 L 940 521.91 L 1030 493.76599999999996 L 1030 797.3589999999999 L 1030 885.848 L 952.422 937.184" stroke-linecap="round" />
</g>
		<g transform="matrix(0.1973154317210896 0 0 -0.1973154317210895 0 97.94612232878234)"  >
<linearGradient id="SVGID_6_6_291094" gradientUnits="userSpaceOnUse" gradientTransform="matrix(1 0 0 1 0 0)"  x1="0" y1="0" x2="0" y2="411">
<stop offset="0%" style="stop-color:rgb(23,234,217);stop-opacity: 1"/>
<stop offset="100%" style="stop-color:rgb(96,120,234);stop-opacity: 1"/>
</linearGradient>
<path style="stroke: none; stroke-width: 1; stroke-dasharray: none; stroke-linecap: butt; stroke-dashoffset: 0; stroke-linejoin: miter; stroke-miterlimit: 4; fill: url(#SVGID_6_6_291094); fill-rule: nonzero; opacity: 1;"  paint-order="stroke"  transform=" translate(-515, -205.457)" d="M 801.523 123.949 L 763.328 138.012 L 572.383 206.422 L 534.188 220.5 L 314.609 299.461 L 276.422 313.539 L 80.918 382.77 L 0 410.914 L 0 370.34 L 80.918 342.191 L 274.156 272.93 L 313.469 258.859 L 533.621 179.879 L 572.113 165.82 L 763.188 97.4102 L 801.449 83.3281 L 953.902 28.1406 L 1030 0 L 1030 40.6211 L 953.938 68.75 L 801.523 123.949" stroke-linecap="round" />
</g>
		<g transform="matrix(0.1973154317210896 0 0 -0.1973154317210895 0 71.90387784669781)"  >
<linearGradient id="SVGID_6_6_291095" gradientUnits="userSpaceOnUse" gradientTransform="matrix(1 0 0 1 0 111.65999999999997)"  x1="0" y1="0" x2="0" y2="452">
<stop offset="0%" style="stop-color:rgb(23,234,217);stop-opacity: 1"/>
<stop offset="100%" style="stop-color:rgb(96,120,234);stop-opacity: 1"/>
</linearGradient>
<path style="stroke: none; stroke-width: 1; stroke-dasharray: none; stroke-linecap: butt; stroke-dashoffset: 0; stroke-linejoin: miter; stroke-miterlimit: 4; fill: url(#SVGID_6_6_291095); fill-rule: nonzero; opacity: 1;"  paint-order="stroke"  transform=" translate(-515, -337.41999999999996)" d="M 801.523 276.191 L 763.328 290.27 L 572.383 358.66 L 534.188 372.738 L 314.609 451.715 L 276.422 465.777 L 80.918 535.035 L 0 563.18 L 0 481.969 L 80.918 453.863 L 274.156 384.602 L 313.469 370.531 L 533.621 291.539 L 572.113 277.48 L 763.188 209.012 L 801.449 194.988 L 953.902 139.801 L 1030 111.66 L 1030 192.85899999999998 L 953.938 221 L 801.523 276.191" stroke-linecap="round" />
</g>
		<g transform="matrix(0.1973154317210896 0 0 -0.1973154317210895 0 47.86788752887398)"  >
<linearGradient id="SVGID_6_6_291096" gradientUnits="userSpaceOnUse" gradientTransform="matrix(1 0 0 1 0 253.76999999999998)"  x1="0" y1="0" x2="0" y2="411">
<stop offset="0%" style="stop-color:rgb(23,234,217);stop-opacity: 1"/>
<stop offset="100%" style="stop-color:rgb(96,120,234);stop-opacity: 1"/>
</linearGradient>
<path style="stroke: none; stroke-width: 1; stroke-dasharray: none; stroke-linecap: butt; stroke-dashoffset: 0; stroke-linejoin: miter; stroke-miterlimit: 4; fill: url(#SVGID_6_6_291096); fill-rule: nonzero; opacity: 1;"  paint-order="stroke"  transform=" translate(-515, -459.217)" d="M 801.523 377.672 L 763.328 391.738 L 572.383 460.199 L 534.188 474.266 L 314.609 553.246 L 276.42199999999997 567.293 L 80.918 636.539 L 0 664.664 L 0 624.098 L 80.918 595.953 L 274.156 526.688 L 313.469 512.621 L 533.621 433.629 L 572.113 419.566 L 763.188 351.16 L 801.449 337.102 L 953.902 281.891 L 1030 253.77 L 1030 294.371 L 953.938 322.488 L 801.523 377.672" stroke-linecap="round" />
</g>
		<g transform="matrix(0.1973154317210896 0 0 -0.1973154317210895 0 23.82456206488962)"  >
<linearGradient id="SVGID_6_6_291097" gradientUnits="userSpaceOnUse" gradientTransform="matrix(1 0 0 1 0 355.28899999999993)"  x1="0" y1="0" x2="0" y2="452">
<stop offset="0%" style="stop-color:rgb(23,234,217);stop-opacity: 1"/>
<stop offset="100%" style="stop-color:rgb(96,120,234);stop-opacity: 1"/>
</linearGradient>
<path style="stroke: none; stroke-width: 1; stroke-dasharray: none; stroke-linecap: butt; stroke-dashoffset: 0; stroke-linejoin: miter; stroke-miterlimit: 4; fill: url(#SVGID_6_6_291097); fill-rule: nonzero; opacity: 1;"  paint-order="stroke"  transform=" translate(-515, -581.0509999999999)" d="M 801.523 519.82 L 763.328 533.902 L 572.383 602.293 L 534.188 616.355 L 314.609 695.34 L 276.422 709.402 L 80.918 778.668 L 0 806.813 L 0 725.602 L 80.918 697.496 L 274.156 628.23 L 313.469 614.148 L 533.621 535.172 L 572.113 521.109 L 763.188 452.684 L 801.449 438.617 L 953.902 383.43 L 1030 355.289 L 1030 436.488 L 953.938 464.637 L 801.523 519.82" stroke-linecap="round" />
</g>
</g>
</g>
</svg>